<?xml version="1.0" encoding="UTF-8"?>
<svg id="uuid-43232399-cf45-43f7-a8da-3c7fc82bbd89" data-name="Lag 1" xmlns="http://www.w3.org/2000/svg" xmlns:xlink="http://www.w3.org/1999/xlink" viewBox="0 0 501.62 249.35">
  <defs>
    <style>
      .uuid-10a8972b-6700-4dce-a04a-e2dbeeb4b1c2 {
        fill: #878252;
      }

      .uuid-10a8972b-6700-4dce-a04a-e2dbeeb4b1c2, .uuid-a7d9bd63-7fa2-4668-a562-fde7a52a593b, .uuid-1083264b-0109-4c68-8b9d-80875e099f32, .uuid-76248053-9f86-4f6c-9b7a-78e7e08da950, .uuid-301f3bfd-75cc-4e5b-92ed-5231a77f9dc6, .uuid-9bd6559b-0f07-4381-b656-01c54fbbc7e9, .uuid-4e760d86-6f0e-4d96-8123-500ebc22c233, .uuid-6df47f21-075e-435a-94bf-c65206636cee, .uuid-d1aee525-377e-49c1-958e-737b4a69aaa9, .uuid-0ed30bdd-cb17-40cc-8dfa-47ba0c2edaaa, .uuid-edd737bf-29aa-48b4-9fe3-9a357e8a231e, .uuid-21493487-1394-454f-8565-03bd91225bf0, .uuid-b60e9a8b-fbe1-47d4-98a8-5b237fb50428, .uuid-b1251d18-edc7-4ead-85e0-68d394d76aa9, .uuid-f1c22276-9462-404d-af30-60dbdc1ba1e2, .uuid-4028ffc5-6af3-4927-b542-ee5b62c8c78a, .uuid-ec8d0cd6-68a7-4fb9-962c-79582c212de9, .uuid-ebf79952-2d6d-4216-bbd4-038eb6746ec2, .uuid-be4395ea-713b-4d73-9d09-8ad8d20d4f89, .uuid-8124a94b-bf9a-4441-8537-1dc734989a0b {
        stroke-miterlimit: 10;
      }

      .uuid-10a8972b-6700-4dce-a04a-e2dbeeb4b1c2, .uuid-a7d9bd63-7fa2-4668-a562-fde7a52a593b, .uuid-76248053-9f86-4f6c-9b7a-78e7e08da950, .uuid-4e760d86-6f0e-4d96-8123-500ebc22c233, .uuid-edd737bf-29aa-48b4-9fe3-9a357e8a231e, .uuid-f1c22276-9462-404d-af30-60dbdc1ba1e2, .uuid-4028ffc5-6af3-4927-b542-ee5b62c8c78a, .uuid-ebf79952-2d6d-4216-bbd4-038eb6746ec2 {
        stroke: #331d12;
      }

      .uuid-10a8972b-6700-4dce-a04a-e2dbeeb4b1c2, .uuid-a7d9bd63-7fa2-4668-a562-fde7a52a593b, .uuid-6df47f21-075e-435a-94bf-c65206636cee, .uuid-edd737bf-29aa-48b4-9fe3-9a357e8a231e, .uuid-21493487-1394-454f-8565-03bd91225bf0, .uuid-4028ffc5-6af3-4927-b542-ee5b62c8c78a, .uuid-ebf79952-2d6d-4216-bbd4-038eb6746ec2, .uuid-8124a94b-bf9a-4441-8537-1dc734989a0b {
        stroke-width: 2px;
      }

      .uuid-a7d9bd63-7fa2-4668-a562-fde7a52a593b, .uuid-9bd6559b-0f07-4381-b656-01c54fbbc7e9, .uuid-4e760d86-6f0e-4d96-8123-500ebc22c233, .uuid-6df47f21-075e-435a-94bf-c65206636cee, .uuid-0ed30bdd-cb17-40cc-8dfa-47ba0c2edaaa, .uuid-f1c22276-9462-404d-af30-60dbdc1ba1e2, .uuid-be4395ea-713b-4d73-9d09-8ad8d20d4f89 {
        fill: none;
      }

      .uuid-1083264b-0109-4c68-8b9d-80875e099f32 {
        fill: #64583d;
      }

      .uuid-1083264b-0109-4c68-8b9d-80875e099f32, .uuid-6df47f21-075e-435a-94bf-c65206636cee, .uuid-0ed30bdd-cb17-40cc-8dfa-47ba0c2edaaa, .uuid-b1251d18-edc7-4ead-85e0-68d394d76aa9, .uuid-ec8d0cd6-68a7-4fb9-962c-79582c212de9, .uuid-8124a94b-bf9a-4441-8537-1dc734989a0b {
        stroke: #1e1e1c;
      }

      .uuid-76248053-9f86-4f6c-9b7a-78e7e08da950 {
        fill: #9f764f;
        stroke-width: 5px;
      }

      .uuid-301f3bfd-75cc-4e5b-92ed-5231a77f9dc6, .uuid-d1aee525-377e-49c1-958e-737b4a69aaa9, .uuid-b60e9a8b-fbe1-47d4-98a8-5b237fb50428, .uuid-be4395ea-713b-4d73-9d09-8ad8d20d4f89 {
        stroke: #432d1f;
      }

      .uuid-301f3bfd-75cc-4e5b-92ed-5231a77f9dc6, .uuid-b60e9a8b-fbe1-47d4-98a8-5b237fb50428 {
        fill: #432d1f;
      }

      .uuid-9bd6559b-0f07-4381-b656-01c54fbbc7e9 {
        stroke: #1e1f1c;
      }

      .uuid-4e760d86-6f0e-4d96-8123-500ebc22c233 {
        stroke-dasharray: 11.91 11.91;
      }

      .uuid-d1aee525-377e-49c1-958e-737b4a69aaa9 {
        fill: #a1774d;
        stroke-width: 3px;
      }

      .uuid-3a016c0f-da47-4031-b3fc-48a311d6dcce {
        fill: #caaa80;
      }

      .uuid-edd737bf-29aa-48b4-9fe3-9a357e8a231e {
        fill: #cb9f5b;
      }

      .uuid-a6c88192-6f12-4f75-83c1-15a5fbf6256f {
        fill: #b99169;
      }

      .uuid-21493487-1394-454f-8565-03bd91225bf0 {
        stroke: #7f5a3a;
      }

      .uuid-21493487-1394-454f-8565-03bd91225bf0, .uuid-47b6ba3b-046a-4a4d-9c7a-e2406a0e566f {
        fill: #7f5a3a;
      }

      .uuid-b60e9a8b-fbe1-47d4-98a8-5b237fb50428, .uuid-be4395ea-713b-4d73-9d09-8ad8d20d4f89 {
        stroke-width: 4px;
      }

      .uuid-b1251d18-edc7-4ead-85e0-68d394d76aa9 {
        fill: #f6d142;
      }

      .uuid-681e6ac9-8350-4f02-b772-73ee0ee44119 {
        fill: #d8b685;
      }

      .uuid-4028ffc5-6af3-4927-b542-ee5b62c8c78a {
        fill: #62523a;
      }

      .uuid-ec8d0cd6-68a7-4fb9-962c-79582c212de9 {
        fill: #331d12;
      }

      .uuid-8afc97aa-e744-45a4-822e-bf22ddc0e910 {
        fill: #7f593b;
      }

      .uuid-ebf79952-2d6d-4216-bbd4-038eb6746ec2 {
        fill: #534e2f;
      }

      .uuid-8124a94b-bf9a-4441-8537-1dc734989a0b {
        fill: #c8c7c7;
      }
    </style>
  </defs>
  <a xlink:href="hotspot3">
    <g>
      <path class="uuid-8124a94b-bf9a-4441-8537-1dc734989a0b" d="M88.96,14.44l-.22,4.34"/>
      <path class="uuid-6df47f21-075e-435a-94bf-c65206636cee" d="M85.01,68.44c1.32-.39,3.95-1.39,6.11-4.03.83-1.02,1.39-2.04,1.78-2.9"/>
      <path class="uuid-6df47f21-075e-435a-94bf-c65206636cee" d="M95.49,69.08c1.54-.99,4.5-3.24,6.25-7.36.67-1.58,1.01-3.07,1.18-4.3"/>
      <path class="uuid-6df47f21-075e-435a-94bf-c65206636cee" d="M108.48,68.29c1.07-1.48,3.02-4.65,3.16-9.13.05-1.72-.17-3.23-.46-4.44"/>
      <path class="uuid-6df47f21-075e-435a-94bf-c65206636cee" d="M128.23,67.62c-.68-.75-1.96-2.32-2.5-4.26-.21-.74-.26-1.37-.25-1.86"/>
      <path class="uuid-6df47f21-075e-435a-94bf-c65206636cee" d="M119.37,67.93c-.86-1.01-2.48-3.13-3.05-5.84-.22-1.04-.23-1.93-.17-2.62"/>
      <path class="uuid-8124a94b-bf9a-4441-8537-1dc734989a0b" d="M101.23,43.15c15.55-3.34,19.86-19.66,19.86-19.66.08-.26,3.13-16.41-1.49-21.07-3.56-3.59-11.18.14-15.51,5.63-2.86,3.62-4.07,10.74-6.49,24.99-.56,3.27-1.24,7.7.4,9.47.85.92,2.06.89,3.24.64Z"/>
      <path class="uuid-6df47f21-075e-435a-94bf-c65206636cee" d="M115.93,10.44c-1.6,5.66-3.67,11.84-6.36,18.38-2.06,5.01-4.23,9.6-6.4,13.76"/>
      <path class="uuid-8124a94b-bf9a-4441-8537-1dc734989a0b" d="M107.15,32.76c-2.38-18.7-16.71-24.66-16.71-24.66-.23-.11-14.45-4.56-18.76.72-3.32,4.06-.3,13.33,4.42,18.77,3.11,3.59,9.38,5.39,21.94,8.99,2.88.83,6.79,1.87,8.43,0,.85-.97.87-2.41.69-3.82Z"/>
      <path class="uuid-6df47f21-075e-435a-94bf-c65206636cee" d="M80.94,14.44c4.06,4.25,8.78,8.75,14.21,13.27,4.17,3.47,8.23,6.51,12.09,9.17"/>
      <path class="uuid-9bd6559b-0f07-4381-b656-01c54fbbc7e9" d="M85.98,27.78c.92.24,2.29.52,3.96.64,2.14.15,3.56.25,4.72-.32,3-1.48,2.95-6.82,2.94-7.34"/>
      <path class="uuid-9bd6559b-0f07-4381-b656-01c54fbbc7e9" d="M80.03,21.92c.92.24,2.29.52,3.96.64,2.14.15,3.56.25,4.72-.32,3-1.48,2.95-6.82,2.94-7.34"/>
      <ellipse class="uuid-1083264b-0109-4c68-8b9d-80875e099f32" cx="93.08" cy="47.83" rx="20" ry="12.95" transform="translate(-9.82 28.77) rotate(-16.7)"/>
      <ellipse class="uuid-1083264b-0109-4c68-8b9d-80875e099f32" cx="123.11" cy="46.37" rx="14.58" ry="19.13" transform="translate(39.06 147.57) rotate(-70.93)"/>
      <ellipse class="uuid-b1251d18-edc7-4ead-85e0-68d394d76aa9" cx="134.64" cy="41.38" rx="9.79" ry="8.6"/>
      <ellipse class="uuid-b1251d18-edc7-4ead-85e0-68d394d76aa9" cx="121.37" cy="43.25" rx="9.79" ry="8.6"/>
      <circle class="uuid-ec8d0cd6-68a7-4fb9-962c-79582c212de9" cx="123.83" cy="41.38" r="3.72"/>
      <circle class="uuid-ec8d0cd6-68a7-4fb9-962c-79582c212de9" cx="138.37" cy="40.61" r="3.72"/>
      <path class="uuid-0ed30bdd-cb17-40cc-8dfa-47ba0c2edaaa" d="M97.53,60c-1.15-2.02-3.58-6.96-3.31-13.63.24-5.91,2.49-10.22,3.7-12.21"/>
      <path class="uuid-0ed30bdd-cb17-40cc-8dfa-47ba0c2edaaa" d="M88.34,61.5c-1.15-2.02-3.58-6.96-3.31-13.63.24-5.91,2.49-10.22,3.7-12.21"/>
      <path class="uuid-0ed30bdd-cb17-40cc-8dfa-47ba0c2edaaa" d="M79.71,60c-.94-1.56-2.95-5.35-2.73-10.47.2-4.54,2.05-7.85,3.05-9.38"/>
      <path class="uuid-9bd6559b-0f07-4381-b656-01c54fbbc7e9" d="M120.11,16.14c-.67.37-1.68.85-2.96,1.26-1.64.53-2.73.88-3.74.63-2.63-.63-3.63-4.97-3.73-5.4"/>
      <path class="uuid-9bd6559b-0f07-4381-b656-01c54fbbc7e9" d="M117.81,22.7c-.67.37-1.68.85-2.96,1.26-1.64.53-2.73.88-3.74.63-2.63-.63-3.63-4.97-3.73-5.4"/>
    </g>
  </a>
  <a xlink:href="hotspot1">
    <g>
      <ellipse class="uuid-301f3bfd-75cc-4e5b-92ed-5231a77f9dc6" cx="117.04" cy="238.21" rx="116.54" ry="9.25"/>
      <path class="uuid-d1aee525-377e-49c1-958e-737b4a69aaa9" d="M120.09,86.15c-3.45,9.93-1.81,15.09,0,17.87.97,1.49,3.23,3.06,20.43,10.04,10.17,4.13,13.4,4.27,16.34,7.83,2.84,3.44,4,8.92,3.4,13.62-.46,3.62-2.36,9.11-2.38,9.19,0,0-9.17.86-15.66.68-10.74-.29-19.5-3.56-19.4-4.09.13-.67,14.51,4.39,35.06,3.4,6.9-.33,9-1.05,12.94.34,8.83,3.12,16.63,13.56,15.66,24.51-.22,2.5-.6,6.84-3.75,10.21-3.86,4.15-11.18,6.11-35.4.68-22.15-4.96-39.93-11.96-39.83-12.26.03-.08,7.53,2.28,22.53,6.98,12.51,3.92,13.49,4.31,17.3,5.27,13,3.28,19.51,4.92,25.6,3.23,3.2-.89,6.35-2.44,11.85-2.55,1.12-.02,4.8-.03,8.51,1.02,10.53,2.99,16.28,13.11,18.04,16.68.94,1.9,7.05,14.76,2.69,24.62-6.02,13.63-36,14.95-95.97,17.6,0,0-15.64.69-45.62-.68-2.57-.12-11.08-.53-21.79-2.38-4.89-.84-6.83-1.4-7.83-1.7-3.94-1.2-11.71-3.77-17.7-10.89-1.57-1.87-4.46-5.29-5.79-10.55-2.53-9.99,2.59-18.59,4.09-21.11.55-.92,9.17-14.95,23.49-16,7.35-.54,9.25,2.85,27.57,9.87,3.07,1.18,12.81,4.84,23.15,7.49,20.25,5.19,35.96,4.77,36.08,4.77,0,0,0,0,0,0,0,0-21.35-1.75-36.09-4.77-31.51-6.44-47.13-21.63-50.72-17.36-.76.9-.47,2.25.06,4.92,1.56,7.83,7.18,12.83,9.43,14.77,12.99,11.21,26.57,18.05,26.55,18.04-7.27-2.77-17.8-8.05-26.55-18.04,0,0-5.12-6.92-9.49-19.7-.43-1.25-.88-2.84-1.06-4.81-.2-2.17,0-4.09.38-6.08,1.28-6.51,2.36-12.73,7.49-18.72,1.26-1.47,5.45-6.13,12.42-9.22,3.13-1.39,6.51-2.84,10.53-2.08,2.71.51,4.23,1.73,6.95,3.57,0,0,5.58,3.76,14.35,8.08,8.79,4.33,16.3,5.23,16.34,5.11.04-.16-11.41-1.96-24.02-9.24-9.28-5.36-14.74-8.51-16.5-14.25-4.09-13.38,14.57-32.12,32.34-39.83,5.59-2.43,10.57-3.53,13.96-4.09Z"/>
      <path class="uuid-3a016c0f-da47-4031-b3fc-48a311d6dcce" d="M212.95,210.49c-2.85,1.82-9.32-8.51-21.93-15.14-9.95-5.23-13.22-2.64-34.72-5.79-35.53-5.2-50.22-15.72-55.49-19.91-5.32-4.23-9.4-8.66-8.85-9.41,1.05-1.42,17.15,12.94,42.89,20.31,8.12,2.32,16.63,4.76,28.2,4.72,11.79-.04,15.47-2.6,25.84-.65,5.64,1.06,15.44,3.05,21.03,11.26,3.72,5.47,5.24,13.21,3.03,14.62Z"/>
      <path class="uuid-3a016c0f-da47-4031-b3fc-48a311d6dcce" d="M160.05,130.35c-.76.44-1.67.31-3.36-.27-2.07-.71-3.1-1.07-4.42-1.95-3.59-2.4-10.02-3.95-21.32-9.01-10.52-4.71-15.8-7.13-17.19-10.38-3.18-7.45,3.24-17.26,4.84-16.91,1.47.32-1.62,9.14,3.5,14.7.7.76,1.24,1.12,8.77,4.22,10.48,4.32,15.72,6.49,16.25,6.67,2.33.83,4.33,1.48,6.81,3.06,2.02,1.29,4.94,3.57,4.94,3.57h0s2.64,2.29,2.38,4.43c-.09.75-.55,1.5-1.19,1.87Z"/>
      <path class="uuid-21493487-1394-454f-8565-03bd91225bf0" d="M28.13,190.61c6.01-1.32,8.92,8.83,22.47,19.06,11.53,8.71,23.14,11.74,33.02,14.3,8.73,2.26,17.19,2.98,34.1,4.43,10.38.89,17.81,1.16,23.43,1.36,16.15.57,24.39.82,32.59-.98,6.6-1.45,13.55-2.97,20.51-8.21,11.37-8.56,13.05-25.11,15.58-24.46.27.07.68.96,1.48,2.72.93,2.05,2.03,4.74,2.48,6.25,1.49,5,1.21,14.92.21,18.37-3.24,11.21-31.26,13.78-81.03,16.93-26.01,1.64-44.72,2.61-69.51-.66-16.57-2.19-35.22-6.18-41.56-18.68-2.88-5.68-2.73-12.15-2.72-12.44.23-6.84,3.38-16.76,8.93-17.98Z"/>
      <path class="uuid-47b6ba3b-046a-4a4d-9c7a-e2406a0e566f" d="M66.41,141.62c3.15,2.42-6.28,12.56-3.42,23.54,1.82,7,8.02,11.93,20.9,18.19,30.09,14.63,57.04,17.27,56.93,18.01-.09.61-18.04-1.72-35.31-4.64-10.4-1.75-17.42-3.19-25.75-6.83-5.02-2.2-4.68-2.64-10.81-5.29-13.16-5.69-17.51-4.84-20.72-9.45-3.46-4.97-2.27-11.51-1.81-14.04.22-1.23,1.18-5.88,4.87-10.57,4.5-5.72,12.58-10.87,15.13-8.92Z"/>
      <path class="uuid-47b6ba3b-046a-4a4d-9c7a-e2406a0e566f" d="M95.22,95.21c1.24.99-5.94,8.21-7.52,20-.18,1.33-1.01,7.54.69,13.1,5.53,18.11,35.78,22.26,34.89,25.7-.52,2.04-11.4,1.33-18.95-1.08-3.72-1.19-7.54-2.41-9.99-5.22-.41-.47-1.32-1.6-2.89-2.72-1.92-1.37-3.58-1.85-4.6-2.21-4.37-1.57-7.32-4.82-8.51-6.13-1.42-1.56-4.14-4.56-4.94-9.19-.7-4.06.44-7.29,1.41-10.04,1.3-3.69,3.12-6.23,4.6-8.25.53-.72,2.07-2.78,5.25-5.9,1.67-1.63,9.28-9.07,10.54-8.06Z"/>
      <path class="uuid-47b6ba3b-046a-4a4d-9c7a-e2406a0e566f" d="M147.86,117.56c-1.86,1.35,4.13,11.04.38,15.72-.02.03-.15.19-.34.38-.79.84-3.2,3.03-9.3,2.81-9.9-.35-30.31-7.06-31.21-5.31-.58,1.11,5.83,7.31,12.38,8.88,1.36.33,6.58,1.38,8.75,2.84.25.17,1.05.74,2.25,1.08.54.15.92.19,2.21.34.86.1,1.73.22,2.59.3,4.67.47,7.23,1.93,11.54,1.4,2.33-.29,2.15-.78,4.22-.86,3.49-.13,5.16,1.24,6.47.22.46-.36.48-.7,1.13-3.62,1.02-4.58,1.11-4.31,1.26-5.57,0,0,.34-2.94-.13-5.83-1.2-7.31-10.37-14.12-12.19-12.79Z"/>
      <path class="uuid-47b6ba3b-046a-4a4d-9c7a-e2406a0e566f" d="M186.53,168.69c-24.05,1.61-32.54,1.9-32.54,1.9-9.89.33-14.83.5-18.96.24-17.9-1.15-29.97-5.38-30.22-4.52-.24.82,10.78,4.81,14.14,5.98,4.34,1.5,8.18,2.69,8.18,2.69.41.13,1.9.59,3.62,1.11.33.1,1.63.5,3.69,1.13.04.01,2.32.71,2.62.8,2.27.69,4.54,1.38,6.81,2.08,2.63.82,2.71.86,3.37,1.01,1.52.35,1.83.28,2.59.69.67.36,1.06.76,1.88.87.42.06.51-.02,1.24-.03.82-.01,1.6.07,1.99.16,1.32.3,2.1,1.48,2.41,1.86,1.8,2.24,6.95,1.64,10.93,1.59,3.3-.04,7.61-.16,11.69-3.17,1.92-1.42,3.2-3.04,3.96-4.16,1.59-6.23,2.61-10.23,2.61-10.23Z"/>
      <path class="uuid-be4395ea-713b-4d73-9d09-8ad8d20d4f89" d="M120.01,86.82c-3.45,9.93-1.81,15.09,0,17.87.97,1.49,3.23,3.06,20.43,10.04,10.17,4.13,13.4,4.27,16.34,7.83,2.84,3.44,4,8.92,3.4,13.62-.46,3.62-2.36,9.11-2.38,9.19,0,0-9.17.86-15.66.68-10.74-.29-19.5-3.56-19.4-4.09.13-.67,14.51,4.39,35.06,3.4,6.9-.33,9-1.05,12.94.34,8.83,3.12,16.63,13.56,15.66,24.51-.22,2.5-.6,6.84-3.75,10.21-3.22,3.46-10.09,6.8-35.4.68-24.93-6.02-43.16-15.27-43.2-15.19-.02.05,6.97,3.67,17.45,7.26,2.08.71,6.6,2.1,15.57,4.84,6.52,1.99,9.78,2.99,10.18,3.1,12.15,3.22,18.4,5.22,25.6,3.23,3.2-.89,6.35-2.44,11.85-2.55,1.12-.02,4.8-.03,8.51,1.02,10.53,2.99,16.28,13.11,18.04,16.68.94,1.9,7.05,14.76,2.69,24.62-6.02,13.63-36,14.95-95.97,17.6,0,0-15.64.69-45.62-.68-2.57-.12-11.08-.53-21.79-2.38-4.89-.84-6.83-1.4-7.83-1.7-3.94-1.2-11.71-3.77-17.7-10.89-1.57-1.87-4.46-5.29-5.79-10.55-2.53-9.99,2.59-18.59,4.09-21.11.55-.92,9.17-14.95,23.49-16,7.35-.54,9.25,2.85,27.57,9.87,3.07,1.18,12.81,4.84,23.15,7.49,20.03,5.14,32.9,4.86,36.08,4.77,3.38-.1,6.17-.35,8.04-.55-2.16.19-5.29.41-9.07.46-14.16.18-25.59-2.93-35.06-4.67-27.67-5.12-48.86-21.34-51.71-17.26-.49.7.02,2.07,1.05,4.82,2.66,7.16,6.56,12.3,9.43,14.77,12.99,11.21,26.57,18.05,26.55,18.04-7.27-2.77-17.8-8.05-26.55-18.04,5.49,4.36,6.73,5.38,6.71,5.41-.04.05-7.67-6.25-12.76-12.72-1.6-2.04-3.21-4.41-3.2-6.7,0-.42.07-1.99-.1-4.19-.05-.64-.08-.83-.14-1.5-.2-2.2-.2-3.78-.23-4.84-.07-3.01-.37-5.05-.45-6.05-.4-4.95,2.46-12.84,7.49-18.72,1.26-1.47,5.45-6.13,12.42-9.22,3.13-1.39,6.51-2.84,10.53-2.08,2.71.51,4.23,1.73,6.95,3.57,0,0,5.58,3.76,14.35,8.08,8.79,4.33,16.3,5.23,16.34,5.11.04-.16-11.41-1.96-24.02-9.24-9.28-5.36-14.74-8.51-16.5-14.25-4.09-13.38,14.57-32.12,32.34-39.83,5.59-2.43,10.57-3.53,13.96-4.09Z"/>
      <ellipse class="uuid-681e6ac9-8350-4f02-b772-73ee0ee44119" cx="75.37" cy="149.65" rx="4.54" ry="5.87" transform="translate(-86.62 192.49) rotate(-78.08)"/>
      <ellipse class="uuid-681e6ac9-8350-4f02-b772-73ee0ee44119" cx="147.9" cy="157.34" rx="3.01" ry="4.35" transform="translate(-36.59 269.56) rotate(-78.08)"/>
      <circle class="uuid-681e6ac9-8350-4f02-b772-73ee0ee44119" cx="102.75" cy="106.27" r="3.56"/>
      <ellipse class="uuid-681e6ac9-8350-4f02-b772-73ee0ee44119" cx="131.04" cy="124.56" rx="2.43" ry="3.36" transform="translate(-42.35 175.77) rotate(-60)"/>
      <circle class="uuid-681e6ac9-8350-4f02-b772-73ee0ee44119" cx="166.29" cy="201.71" r="1.32"/>
      <circle class="uuid-681e6ac9-8350-4f02-b772-73ee0ee44119" cx="89.86" cy="214.34" r="1.37"/>
    </g>
  </a>
  <a xlink:href="hotspot2">
    <g>
      <ellipse class="uuid-b60e9a8b-fbe1-47d4-98a8-5b237fb50428" cx="386.49" cy="238.88" rx="108.32" ry="8.47"/>
      <path class="uuid-76248053-9f86-4f6c-9b7a-78e7e08da950" d="M323.85,125.23c-15.53-1.1-20.44-5.71-33.7-2.69-5.66,1.29-18.43,5.93-24.94,15.29-3.21,4.62-1.09,10.99-6.21,18.05-1.68,2.31-3.41,3.93-4.6,4.93l-6.13,25.28,13.79,9.44,10.21-4.37,2.04,11.22,15.83,8.98,9.19-7.66,3.57,12.67,16.34,4.18,8.17-9.19,5.62,12.25,16.34,2.04,6.13-9.28,43.91.48,4.09,14.93,15.83,3.57,6.64-8.68,4.09,8.68,17.87,3.52,6.13-9.25,5.11,9.25h15.32c4.27-11.68,4.62-19.84,4.09-25.24-.19-1.95-.75-6.05,0-11.52.79-5.76,2.59-9.83,3.06-10.96,3.73-8.99,1.01-19.99,0-38.52-1.35-24.83-1.99-40.22,7.34-49.25,2.29-2.22,4.75-3.64,6.96-7.6,3.76-6.75,4.72-17.23,0-23.32-4.1-5.29-9.59-3.55-29.62-6.53-18.75-2.79-28.12-4.19-35.23-10.25-5.53-4.71-6.04-8.29-14.3-14.11-4.93-3.48-11.6-8.18-17.36-5.96-1.02.39-4.41,1.93-7.66,10.45-4.01,10.54-3.21,19.7-3.06,23.98.45,13.22-3.68,31.38-13.28,41.74-14.85,16.04-43.32,14.03-51.57,13.44Z"/>
      <path class="uuid-8afc97aa-e744-45a4-822e-bf22ddc0e910" d="M263.49,154.04c-2.37.68-4.3,5.37-3.46,9.33,1.28,6.04,8.08,6.5,27.18,16.57,6.39,3.37,11.19,6.3,20.05,10.24,5.79,2.57,8.93,3.62,12.77,4.09,3.49.43,5.2.08,9.86.68,5.1.66,8.69,1.93,9.82,2.11,35.27,5.5,45.2-1.68,84.96,2.14,9.85.95,19.79.43,29.65,1.13,13.95.99,20.5,2.16,24.65-2.04,2.69-2.72,2.57-5.86,2.48-18.69-.08-12.73.16-25.46.11-38.19-.08-18.41.29-20.69.72-22.74,2.43-11.55,7.05-17.29,4.47-20.19-2.53-2.84-10.97-1.79-15.83,2.84-7.28,6.93-2.51,18.02-2.3,40.34.2,21.35.33,34.82-7.91,42.64-6.75,6.4-13.81,3.99-48,4.6-32.58.58-29.27,2.83-45.45,1.79-25.08-1.62-43.28-7.68-56.68-12.26-18.6-6.35-28.94-12.71-34.45-16.65-1.11-.8-1.9-1.48-3.59-2.71-5.01-3.64-7.55-5.46-9.05-5.03Z"/>
      <path class="uuid-a6c88192-6f12-4f75-83c1-15a5fbf6256f" d="M266.15,142.76c-.52-.46,4.63-11.73,15.98-16.85,7.82-3.53,15.33-2.68,22.58-1.86,10.74,1.22,10.33,3.73,20.17,4.85,12.06,1.37,21.97-1.36,28.16-3.06,6.5-1.79,10.31-2.84,14.44-5.47,9.19-5.85,13.45-15.36,16.95-25.92,11.4-34.33,5.84-52.7,14.42-56.19,9.32-3.79,25.13,14.12,24.83,14.55-.17.24-5.77-4.22-15.74-7.15-4.08-1.2-6.12-1.8-7.49-1.28-6.1,2.31-3.42,16.26-6.95,38.97-3.45,22.21-9.18,29.23-11,31.31-5.93,6.79-13.44,10.44-14.59,10.99-4.79,2.28-8.62,3.05-14.88,4.3-4.17.83-11.28,2.22-20.5,2.09-8.42-.12-7.98-1.34-20.68-2.09-8.61-.5-14.03-.25-17.36,0-6.54.49-9.81.73-13.53,2.09-9.77,3.57-14.36,11.12-14.81,10.72Z"/>
      <path class="uuid-a6c88192-6f12-4f75-83c1-15a5fbf6256f" d="M427,54.85c2.74,1.67,6.14,3.46,10.16,5.03,3.61,1.41,6.95,2.34,9.85,2.97h0c-2.66,6.56-3.79,6.93-3.79,6.93-2.13.69-8.25-3.45-6.25-2.44h0s-2.53-1.6-4.36-2.79c-1.12-.73-2.7-1.77-4.6-3.06-2.51.28-4.44-1.68-4.34-3.51.08-1.45,1.44-2.87,3.31-3.12Z"/>
      <path class="uuid-edd737bf-29aa-48b4-9fe3-9a357e8a231e" d="M380.53,101.43c1.5-1.28,3.76-.44,11.89.59,8.54,1.08,11.2.79,12.35,2.49,1.01,1.48.38,3.77-1.18,5.03-2.83,2.31-6.75-.4-19.1-1.44-.93-.08-2.7-.21-3.85-1.28-1.53-1.41-1.62-4.11-.12-5.39Z"/>
      <path class="uuid-edd737bf-29aa-48b4-9fe3-9a357e8a231e" d="M370.91,116.21c1.85-.68,3.68.9,10.94,4.68,7.64,3.98,10.23,4.64,10.72,6.62.43,1.74-.96,3.67-2.85,4.31-3.46,1.18-6.19-2.72-17.41-7.99-.84-.4-2.46-1.14-3.17-2.54-.95-1.85-.09-4.42,1.76-5.1Z"/>
      <path class="uuid-edd737bf-29aa-48b4-9fe3-9a357e8a231e" d="M371.17,117.67c1.52,1.26,1.08,3.63,1.48,11.81.42,8.6,1.16,11.17-.3,12.6-1.28,1.25-3.65,1.03-5.16-.28-2.76-2.39-.78-6.72-1.89-19.06-.08-.93-.26-2.69.59-4.02,1.12-1.75,3.77-2.31,5.29-1.05Z"/>
      <path class="uuid-edd737bf-29aa-48b4-9fe3-9a357e8a231e" d="M337.91,142.99c-.26-1.58,1.26-2.98,5.32-8.73,4.27-6.04,5.18-8.14,6.81-8.4,1.43-.23,2.74,1.05,2.97,2.67.41,2.95-3.07,4.93-8.88,13.84-.44.67-1.26,1.95-2.47,2.44-1.6.65-3.49-.24-3.75-1.83Z"/>
      <path class="uuid-edd737bf-29aa-48b4-9fe3-9a357e8a231e" d="M350.74,123.64c1.85-.11,3.2,1.81,9.1,7.17,6.2,5.64,8.46,6.94,8.5,8.85.04,1.68-1.65,3.03-3.53,3.09-3.43.12-5.14-4.12-14.37-11.89-.69-.58-2.03-1.69-2.39-3.14-.49-1.92.84-3.99,2.69-4.09Z"/>
      <path class="uuid-edd737bf-29aa-48b4-9fe3-9a357e8a231e" d="M382.72,107.41c1.96.24,2.86,2.48,7.59,9.17,4.97,7.03,6.97,8.8,6.5,10.79-.41,1.75-2.53,2.82-4.51,2.53-3.61-.53-4.26-5.25-11.83-15.06-.57-.74-1.66-2.14-1.66-3.7,0-2.08,1.94-3.97,3.9-3.73Z"/>
      <path class="uuid-edd737bf-29aa-48b4-9fe3-9a357e8a231e" d="M389.48,88.7c1.96-.23,3.37,1.73,9.56,7.09,6.51,5.64,8.88,6.88,8.89,8.93.02,1.79-1.78,3.35-3.77,3.53-3.64.35-5.39-4.08-15.08-11.8-.73-.58-2.13-1.68-2.5-3.2-.49-2.02.94-4.32,2.9-4.55Z"/>
      <path class="uuid-edd737bf-29aa-48b4-9fe3-9a357e8a231e" d="M336.87,142.71c-1.45-.99-.88-2.74-.81-8.81.07-6.39-.53-8.33,1.02-9.32,1.35-.87,3.7-.61,5.14.43,2.62,1.89.39,5.01.81,14.2.03.69.11,2.01-.81,2.95-1.22,1.25-3.89,1.55-5.34.56Z"/>
      <path class="uuid-edd737bf-29aa-48b4-9fe3-9a357e8a231e" d="M386.5,85.07c1.17-1.59,3.56-1.29,11.7-2.17,8.56-.92,11.08-1.81,12.6-.43,1.32,1.21,1.24,3.58.02,5.17-2.22,2.9-6.66,1.16-18.91,3-.92.14-2.67.41-4.04-.35-1.82-1.02-2.52-3.63-1.36-5.22Z"/>
      <path class="uuid-a7d9bd63-7fa2-4668-a562-fde7a52a593b" d="M424.7,56.89c-2.51,3.74-8.15,1.18-11.74,4.34-4.22,3.71.19,10.49-.82,22.2-.61,7.05-3.51,13.01-9.31,24.91-4.86,9.97-7.29,14.96-11.83,19.27-5.91,5.61-11.77,7.62-21.65,11.01-9.81,3.37-18.98,6.39-29.16,3.53-5.15-1.45-8.34-3.78-10.46-6.37-2.45-3.01-4.74-7.97-3.07-9.95,1.29-1.54,4.31-.52,7.81,0,6.76,1,11.92-.38,19.55-2.41,11.41-3.04,23.98-12.3,29.62-25.1,2.82-6.4,3.36-12.44,4.22-22.02.88-9.85-.21-12.31,1.31-20.25,1.65-8.61,3.31-17.31,9.5-19.83,5.55-2.26,11.93,1.6,18.13,5.36,5.94,3.6,7.37,6.6,7.91,8.17.44,1.25,1.64,4.7,0,7.15Z"/>
      <path class="uuid-ebf79952-2d6d-4216-bbd4-038eb6746ec2" d="M437.53,71.7c-.18,1.16-.7,4.9-.03,9.71.32,2.35.88,4.64,1.31,5.8,1.2,3.28,4.84,7.14,19.46,11.07,16.51,4.44,25.22,6.78,31.88,1.58,4.54-3.54,6.31-9.17,6.82-10.81.74-2.37,2.64-8.43.42-13.3-2.77-6.09-9.67-5.22-31.32-10.96-14.78-3.92-21.28-6.9-25.02-3.32-2.26,2.16-2.88,6.11-3.52,10.21Z"/>
      <path class="uuid-4028ffc5-6af3-4927-b542-ee5b62c8c78a" d="M474.49,238.88h-15.32l-5.11-9.25-6.13,9.25-17.87-3.52-4.09-8.68-6.64,8.68-15.83-3.57-4.09-14.93-43.91-.48-6.13,9.28-16.34-2.04-5.62-12.25-8.17,9.19-16.34-4.18-3.57-12.67-9.19,7.66-15.83-8.98-2.04-11.22-10.21,4.37-13.79-9.44,5.11-21.07c13.99,12.22,36.13,28.04,66.38,36.04,17.7,4.68,31.05,4.8,53.93,5.2,23.4.4,58.84,1.13,104.51,2.52l.37,4.87"/>
      <path class="uuid-10a8972b-6700-4dce-a04a-e2dbeeb4b1c2" d="M257.13,159.31c5.94-2.15,11.86,10.59,31.02,21.16,2.29,1.26,3.88,2,6.74,3.34,29.1,13.62,59.74,15.18,67.34,15.47,5.11.19,13.2.07,29.36-.17,14.4-.21,15.05-.42,21.79-.34,22.61.26,20.79,2.94,32.92,1.83,8.7-.79,17.62.57,26.2-1.09,1.18-.23,4.32-.88,6.08.83,2,1.94,1.78,6.49-.37,8.44-.86.78-2.04.98-9.67.45-3.16-.22-4.74-.33-5.79-.45-8.05-.98-20.43-.17-23.49,0-13.79.78-18.55-1.12-50.02-2.24-14.62-.52-15.61.03-28.96-.54-14.73-.64-22.29-1-31.97-2.96-7.25-1.47-13.62-3.61-26.36-7.88-11.17-3.75-15.69-5.77-20.31-8.64-5.03-3.13-4.2-3.52-11.25-8.3-11.02-7.46-16.89-9.12-17-13.19-.06-2.13,1.46-4.88,3.74-5.71Z"/>
      <ellipse class="uuid-10a8972b-6700-4dce-a04a-e2dbeeb4b1c2" cx="339.09" cy="151.46" rx="9.36" ry="8.16"/>
      <ellipse class="uuid-10a8972b-6700-4dce-a04a-e2dbeeb4b1c2" cx="371.34" cy="146.8" rx="9.36" ry="8.16"/>
      <ellipse class="uuid-10a8972b-6700-4dce-a04a-e2dbeeb4b1c2" cx="397.21" cy="134" rx="9.36" ry="8.16"/>
      <ellipse class="uuid-10a8972b-6700-4dce-a04a-e2dbeeb4b1c2" cx="411.85" cy="110.5" rx="9.36" ry="8.16"/>
      <ellipse class="uuid-10a8972b-6700-4dce-a04a-e2dbeeb4b1c2" cx="421.21" cy="85.41" rx="9.36" ry="8.16"/>
      <path class="uuid-a7d9bd63-7fa2-4668-a562-fde7a52a593b" d="M418.73,187.02c4.4-8.87,9.94-20.25,24.51-28.7,12.34-7.16,32.07-13.18,37.14-6.66,1.01,1.3,1.49,6.22,2.43,16.07.21,2.2.32,3.3.39,4.57.4,7.36-.39,12.12-1.56,18.86-.86,4.94-1.39,6.33-2.67,7.12-2.05,1.27-6.42,1.24-6.47,1.23-.02,0-.02,0-.02,0,0,0,.09,0,.09,0,0,.02-4.53.58-8.21.82-4.38.29-7.26.12-11.19-.03-8.2-.3-6.87.02-16.7-.23-15.27-.38-18.23-.82-19.56-3.02-1.44-2.37-.34-5.7,1.82-10.04Z"/>
      <g>
        <path class="uuid-f1c22276-9462-404d-af30-60dbdc1ba1e2" d="M421.21,195.26c.67-1.65,1.49-3.49,2.49-5.46"/>
        <path class="uuid-4e760d86-6f0e-4d96-8123-500ebc22c233" d="M429.99,179.69c1.57-2.09,3.34-4.2,5.35-6.28,9.43-9.75,20.04-14.63,28.32-17.12"/>
        <path class="uuid-f1c22276-9462-404d-af30-60dbdc1ba1e2" d="M469.43,154.82c2.43-.51,4.45-.79,5.92-.97"/>
      </g>
    </g>
  </a>
</svg>